<svg xmlns="http://www.w3.org/2000/svg" width="25" height="50" viewBox="0 0 225 50" fill="none">
<rect x="0.626953" y="-0.000160217" width="38" height="38" rx="19" fill="#FEEDED"/>
<path d="M28.9712 13.6728V16.7548L20.8523 13.2915C19.7882 12.8376 18.5798 12.8666 17.5387 13.371L12.5339 15.796V17.9876L17.5645 15.5502C18.5906 15.053 19.7802 15.0173 20.8342 15.4522L28.9712 18.8095V27.7815L20.8217 24.2481C19.7756 23.7946 18.5857 23.809 17.5509 24.2878L10 27.7815V24.3571L17.5831 20.9616C18.5996 20.5065 19.7599 20.4957 20.7846 20.932L26.0948 23.1928V20.9326L20.8388 18.6949C19.7825 18.2452 18.5839 18.2711 17.548 18.7658L10 22.3709V13.6728L17.466 9.99547C18.5485 9.46227 19.8139 9.44629 20.9096 9.95199L28.9712 13.6728Z" fill="url(#paint0_linear_2394_5973)"/>
<path d="M53.371 27.2158C52.283 27.2158 51.307 27.0238 50.443 26.6398C49.579 26.2398 48.891 25.7038 48.379 25.0318C47.883 24.3598 47.611 23.6158 47.563 22.7998H50.947C51.011 23.3118 51.259 23.7358 51.691 24.0718C52.139 24.4078 52.691 24.5758 53.347 24.5758C53.987 24.5758 54.483 24.4478 54.835 24.1918C55.203 23.9358 55.387 23.6078 55.387 23.2078C55.387 22.7758 55.163 22.4558 54.715 22.2478C54.283 22.0238 53.587 21.7838 52.627 21.5278C51.635 21.2878 50.819 21.0398 50.179 20.7838C49.555 20.5278 49.011 20.1358 48.547 19.6078C48.099 19.0798 47.875 18.3678 47.875 17.4718C47.875 16.7358 48.083 16.0638 48.499 15.4558C48.931 14.8478 49.539 14.3678 50.323 14.0158C51.123 13.6638 52.059 13.4878 53.131 13.4878C54.715 13.4878 55.979 13.8878 56.923 14.6878C57.867 15.4718 58.387 16.5358 58.483 17.8798H55.267C55.219 17.3518 54.995 16.9358 54.595 16.6318C54.211 16.3118 53.691 16.1518 53.035 16.1518C52.427 16.1518 51.955 16.2638 51.619 16.4878C51.299 16.7118 51.139 17.0238 51.139 17.4238C51.139 17.8718 51.363 18.2158 51.811 18.4558C52.259 18.6798 52.955 18.9118 53.899 19.1518C54.859 19.3918 55.651 19.6398 56.275 19.8958C56.899 20.1518 57.435 20.5518 57.883 21.0958C58.347 21.6238 58.587 22.3278 58.603 23.2078C58.603 23.9758 58.387 24.6638 57.955 25.2718C57.539 25.8798 56.931 26.3598 56.131 26.7118C55.347 27.0478 54.427 27.2158 53.371 27.2158ZM65.2731 16.4638V22.8958C65.2731 23.3438 65.3771 23.6718 65.5851 23.8798C65.8091 24.0718 66.1771 24.1678 66.6891 24.1678H68.2491V26.9998H66.1371C63.3051 26.9998 61.8891 25.6238 61.8891 22.8718V16.4638H60.3051V13.7038H61.8891V10.4158H65.2731V13.7038H68.2491V16.4638H65.2731ZM69.8018 20.3038C69.8018 18.9598 70.0658 17.7678 70.5938 16.7278C71.1378 15.6878 71.8658 14.8878 72.7778 14.3278C73.7058 13.7678 74.7378 13.4878 75.8738 13.4878C76.8658 13.4878 77.7298 13.6878 78.4658 14.0878C79.2178 14.4878 79.8178 14.9918 80.2658 15.5998V13.7038H83.6498V26.9998H80.2658V25.0558C79.8338 25.6798 79.2338 26.1998 78.4658 26.6158C77.7138 27.0158 76.8418 27.2158 75.8498 27.2158C74.7298 27.2158 73.7058 26.9278 72.7778 26.3518C71.8658 25.7758 71.1378 24.9678 70.5938 23.9278C70.0658 22.8718 69.8018 21.6638 69.8018 20.3038ZM80.2658 20.3518C80.2658 19.5358 80.1058 18.8398 79.7858 18.2638C79.4658 17.6718 79.0338 17.2238 78.4898 16.9198C77.9458 16.5998 77.3618 16.4398 76.7378 16.4398C76.1138 16.4398 75.5378 16.5918 75.0098 16.8958C74.4818 17.1998 74.0498 17.6478 73.7138 18.2398C73.3938 18.8158 73.2338 19.5038 73.2338 20.3038C73.2338 21.1038 73.3938 21.8078 73.7138 22.4158C74.0498 23.0078 74.4818 23.4638 75.0098 23.7838C75.5538 24.1038 76.1298 24.2638 76.7378 24.2638C77.3618 24.2638 77.9458 24.1118 78.4898 23.8078C79.0338 23.4878 79.4658 23.0398 79.7858 22.4638C80.1058 21.8718 80.2658 21.1678 80.2658 20.3518ZM92.0194 27.2158C90.9314 27.2158 89.9554 27.0238 89.0914 26.6398C88.2274 26.2398 87.5394 25.7038 87.0274 25.0318C86.5314 24.3598 86.2594 23.6158 86.2114 22.7998H89.5954C89.6594 23.3118 89.9074 23.7358 90.3394 24.0718C90.7874 24.4078 91.3394 24.5758 91.9954 24.5758C92.6354 24.5758 93.1314 24.4478 93.4834 24.1918C93.8514 23.9358 94.0354 23.6078 94.0354 23.2078C94.0354 22.7758 93.8114 22.4558 93.3634 22.2478C92.9314 22.0238 92.2354 21.7838 91.2754 21.5278C90.2834 21.2878 89.4674 21.0398 88.8274 20.7838C88.2034 20.5278 87.6594 20.1358 87.1954 19.6078C86.7474 19.0798 86.5234 18.3678 86.5234 17.4718C86.5234 16.7358 86.7314 16.0638 87.1474 15.4558C87.5794 14.8478 88.1874 14.3678 88.9714 14.0158C89.7714 13.6638 90.7074 13.4878 91.7794 13.4878C93.3634 13.4878 94.6274 13.8878 95.5714 14.6878C96.5154 15.4718 97.0354 16.5358 97.1314 17.8798H93.9154C93.8674 17.3518 93.6434 16.9358 93.2434 16.6318C92.8594 16.3118 92.3394 16.1518 91.6834 16.1518C91.0754 16.1518 90.6034 16.2638 90.2674 16.4878C89.9474 16.7118 89.7874 17.0238 89.7874 17.4238C89.7874 17.8718 90.0114 18.2158 90.4594 18.4558C90.9074 18.6798 91.6034 18.9118 92.5474 19.1518C93.5074 19.3918 94.2994 19.6398 94.9234 19.8958C95.5474 20.1518 96.0834 20.5518 96.5314 21.0958C96.9954 21.6238 97.2354 22.3278 97.2514 23.2078C97.2514 23.9758 97.0354 24.6638 96.6034 25.2718C96.1874 25.8798 95.5794 26.3598 94.7794 26.7118C93.9954 27.0478 93.0754 27.2158 92.0194 27.2158ZM107.498 13.5118C108.506 13.5118 109.402 13.7358 110.186 14.1838C110.97 14.6158 111.578 15.2638 112.01 16.1278C112.458 16.9758 112.682 17.9998 112.682 19.1998V26.9998H109.322V19.6558C109.322 18.5998 109.058 17.7918 108.53 17.2318C108.002 16.6558 107.282 16.3678 106.37 16.3678C105.442 16.3678 104.706 16.6558 104.162 17.2318C103.634 17.7918 103.37 18.5998 103.37 19.6558V26.9998H100.01V9.23984H103.37V15.3598C103.802 14.7838 104.378 14.3358 105.098 14.0158C105.818 13.6798 106.618 13.5118 107.498 13.5118ZM121.973 16.4638H119.645V26.9998H116.237V16.4638H114.725V13.7038H116.237V13.0318C116.237 11.3998 116.701 10.1998 117.629 9.43184C118.557 8.66384 119.957 8.30384 121.829 8.35184V11.1838C121.013 11.1678 120.445 11.3038 120.125 11.5918C119.805 11.8798 119.645 12.3998 119.645 13.1518V13.7038H121.973V16.4638ZM125.854 12.1198C125.262 12.1198 124.766 11.9358 124.366 11.5678C123.982 11.1838 123.79 10.7118 123.79 10.1518C123.79 9.59184 123.982 9.12784 124.366 8.75984C124.766 8.37584 125.262 8.18384 125.854 8.18384C126.446 8.18384 126.934 8.37584 127.318 8.75984C127.718 9.12784 127.918 9.59184 127.918 10.1518C127.918 10.7118 127.718 11.1838 127.318 11.5678C126.934 11.9358 126.446 12.1198 125.854 12.1198ZM127.51 13.7038V26.9998H124.15V13.7038H127.51ZM138.198 13.5118C139.782 13.5118 141.062 14.0158 142.038 15.0238C143.014 16.0158 143.502 17.4078 143.502 19.1998V26.9998H140.142V19.6558C140.142 18.5998 139.878 17.7918 139.35 17.2318C138.822 16.6558 138.102 16.3678 137.19 16.3678C136.262 16.3678 135.526 16.6558 134.982 17.2318C134.454 17.7918 134.19 18.5998 134.19 19.6558V26.9998H130.83V13.7038H134.19V15.3598C134.638 14.7838 135.206 14.3358 135.894 14.0158C136.598 13.6798 137.366 13.5118 138.198 13.5118Z" fill="url(#paint1_linear_2394_5973)"/>
<path d="M53.371 27.2158C52.283 27.2158 51.307 27.0238 50.443 26.6398C49.579 26.2398 48.891 25.7038 48.379 25.0318C47.883 24.3598 47.611 23.6158 47.563 22.7998H50.947C51.011 23.3118 51.259 23.7358 51.691 24.0718C52.139 24.4078 52.691 24.5758 53.347 24.5758C53.987 24.5758 54.483 24.4478 54.835 24.1918C55.203 23.9358 55.387 23.6078 55.387 23.2078C55.387 22.7758 55.163 22.4558 54.715 22.2478C54.283 22.0238 53.587 21.7838 52.627 21.5278C51.635 21.2878 50.819 21.0398 50.179 20.7838C49.555 20.5278 49.011 20.1358 48.547 19.6078C48.099 19.0798 47.875 18.3678 47.875 17.4718C47.875 16.7358 48.083 16.0638 48.499 15.4558C48.931 14.8478 49.539 14.3678 50.323 14.0158C51.123 13.6638 52.059 13.4878 53.131 13.4878C54.715 13.4878 55.979 13.8878 56.923 14.6878C57.867 15.4718 58.387 16.5358 58.483 17.8798H55.267C55.219 17.3518 54.995 16.9358 54.595 16.6318C54.211 16.3118 53.691 16.1518 53.035 16.1518C52.427 16.1518 51.955 16.2638 51.619 16.4878C51.299 16.7118 51.139 17.0238 51.139 17.4238C51.139 17.8718 51.363 18.2158 51.811 18.4558C52.259 18.6798 52.955 18.9118 53.899 19.1518C54.859 19.3918 55.651 19.6398 56.275 19.8958C56.899 20.1518 57.435 20.5518 57.883 21.0958C58.347 21.6238 58.587 22.3278 58.603 23.2078C58.603 23.9758 58.387 24.6638 57.955 25.2718C57.539 25.8798 56.931 26.3598 56.131 26.7118C55.347 27.0478 54.427 27.2158 53.371 27.2158ZM65.2731 16.4638V22.8958C65.2731 23.3438 65.3771 23.6718 65.5851 23.8798C65.8091 24.0718 66.1771 24.1678 66.6891 24.1678H68.2491V26.9998H66.1371C63.3051 26.9998 61.8891 25.6238 61.8891 22.8718V16.4638H60.3051V13.7038H61.8891V10.4158H65.2731V13.7038H68.2491V16.4638H65.2731ZM69.8018 20.3038C69.8018 18.9598 70.0658 17.7678 70.5938 16.7278C71.1378 15.6878 71.8658 14.8878 72.7778 14.3278C73.7058 13.7678 74.7378 13.4878 75.8738 13.4878C76.8658 13.4878 77.7298 13.6878 78.4658 14.0878C79.2178 14.4878 79.8178 14.9918 80.2658 15.5998V13.7038H83.6498V26.9998H80.2658V25.0558C79.8338 25.6798 79.2338 26.1998 78.4658 26.6158C77.7138 27.0158 76.8418 27.2158 75.8498 27.2158C74.7298 27.2158 73.7058 26.9278 72.7778 26.3518C71.8658 25.7758 71.1378 24.9678 70.5938 23.9278C70.0658 22.8718 69.8018 21.6638 69.8018 20.3038ZM80.2658 20.3518C80.2658 19.5358 80.1058 18.8398 79.7858 18.2638C79.4658 17.6718 79.0338 17.2238 78.4898 16.9198C77.9458 16.5998 77.3618 16.4398 76.7378 16.4398C76.1138 16.4398 75.5378 16.5918 75.0098 16.8958C74.4818 17.1998 74.0498 17.6478 73.7138 18.2398C73.3938 18.8158 73.2338 19.5038 73.2338 20.3038C73.2338 21.1038 73.3938 21.8078 73.7138 22.4158C74.0498 23.0078 74.4818 23.4638 75.0098 23.7838C75.5538 24.1038 76.1298 24.2638 76.7378 24.2638C77.3618 24.2638 77.9458 24.1118 78.4898 23.8078C79.0338 23.4878 79.4658 23.0398 79.7858 22.4638C80.1058 21.8718 80.2658 21.1678 80.2658 20.3518ZM92.0194 27.2158C90.9314 27.2158 89.9554 27.0238 89.0914 26.6398C88.2274 26.2398 87.5394 25.7038 87.0274 25.0318C86.5314 24.3598 86.2594 23.6158 86.2114 22.7998H89.5954C89.6594 23.3118 89.9074 23.7358 90.3394 24.0718C90.7874 24.4078 91.3394 24.5758 91.9954 24.5758C92.6354 24.5758 93.1314 24.4478 93.4834 24.1918C93.8514 23.9358 94.0354 23.6078 94.0354 23.2078C94.0354 22.7758 93.8114 22.4558 93.3634 22.2478C92.9314 22.0238 92.2354 21.7838 91.2754 21.5278C90.2834 21.2878 89.4674 21.0398 88.8274 20.7838C88.2034 20.5278 87.6594 20.1358 87.1954 19.6078C86.7474 19.0798 86.5234 18.3678 86.5234 17.4718C86.5234 16.7358 86.7314 16.0638 87.1474 15.4558C87.5794 14.8478 88.1874 14.3678 88.9714 14.0158C89.7714 13.6638 90.7074 13.4878 91.7794 13.4878C93.3634 13.4878 94.6274 13.8878 95.5714 14.6878C96.5154 15.4718 97.0354 16.5358 97.1314 17.8798H93.9154C93.8674 17.3518 93.6434 16.9358 93.2434 16.6318C92.8594 16.3118 92.3394 16.1518 91.6834 16.1518C91.0754 16.1518 90.6034 16.2638 90.2674 16.4878C89.9474 16.7118 89.7874 17.0238 89.7874 17.4238C89.7874 17.8718 90.0114 18.2158 90.4594 18.4558C90.9074 18.6798 91.6034 18.9118 92.5474 19.1518C93.5074 19.3918 94.2994 19.6398 94.9234 19.8958C95.5474 20.1518 96.0834 20.5518 96.5314 21.0958C96.9954 21.6238 97.2354 22.3278 97.2514 23.2078C97.2514 23.9758 97.0354 24.6638 96.6034 25.2718C96.1874 25.8798 95.5794 26.3598 94.7794 26.7118C93.9954 27.0478 93.0754 27.2158 92.0194 27.2158ZM107.498 13.5118C108.506 13.5118 109.402 13.7358 110.186 14.1838C110.97 14.6158 111.578 15.2638 112.01 16.1278C112.458 16.9758 112.682 17.9998 112.682 19.1998V26.9998H109.322V19.6558C109.322 18.5998 109.058 17.7918 108.53 17.2318C108.002 16.6558 107.282 16.3678 106.37 16.3678C105.442 16.3678 104.706 16.6558 104.162 17.2318C103.634 17.7918 103.37 18.5998 103.37 19.6558V26.9998H100.01V9.23984H103.37V15.3598C103.802 14.7838 104.378 14.3358 105.098 14.0158C105.818 13.6798 106.618 13.5118 107.498 13.5118ZM121.973 16.4638H119.645V26.9998H116.237V16.4638H114.725V13.7038H116.237V13.0318C116.237 11.3998 116.701 10.1998 117.629 9.43184C118.557 8.66384 119.957 8.30384 121.829 8.35184V11.1838C121.013 11.1678 120.445 11.3038 120.125 11.5918C119.805 11.8798 119.645 12.3998 119.645 13.1518V13.7038H121.973V16.4638ZM125.854 12.1198C125.262 12.1198 124.766 11.9358 124.366 11.5678C123.982 11.1838 123.79 10.7118 123.79 10.1518C123.79 9.59184 123.982 9.12784 124.366 8.75984C124.766 8.37584 125.262 8.18384 125.854 8.18384C126.446 8.18384 126.934 8.37584 127.318 8.75984C127.718 9.12784 127.918 9.59184 127.918 10.1518C127.918 10.7118 127.718 11.1838 127.318 11.5678C126.934 11.9358 126.446 12.1198 125.854 12.1198ZM127.51 13.7038V26.9998H124.15V13.7038H127.51ZM138.198 13.5118C139.782 13.5118 141.062 14.0158 142.038 15.0238C143.014 16.0158 143.502 17.4078 143.502 19.1998V26.9998H140.142V19.6558C140.142 18.5998 139.878 17.7918 139.35 17.2318C138.822 16.6558 138.102 16.3678 137.19 16.3678C136.262 16.3678 135.526 16.6558 134.982 17.2318C134.454 17.7918 134.19 18.5998 134.19 19.6558V26.9998H130.83V13.7038H134.19V15.3598C134.638 14.7838 135.206 14.3358 135.894 14.0158C136.598 13.6798 137.366 13.5118 138.198 13.5118Z" fill="white"/>
<defs>
<linearGradient id="paint0_linear_2394_5973" x1="10.9587" y1="9.91807" x2="19.8777" y2="29.8734" gradientUnits="userSpaceOnUse">
<stop stop-color="#FF3E3E"/>
<stop offset="0.51" stop-color="#FF2D4E"/>
<stop offset="1" stop-color="#FF552B"/>
</linearGradient>
<linearGradient id="paint1_linear_2394_5973" x1="51.6296" y1="1.66106" x2="59.4306" y2="47.7024" gradientUnits="userSpaceOnUse">
<stop stop-color="#FF3E3E"/>
<stop offset="0.51" stop-color="#FF2D4E"/>
<stop offset="1" stop-color="#FF552B"/>
</linearGradient>
</defs>
</svg>